<?xml version="1.0" encoding="us-ascii" standalone="no"?><svg xmlns="http://www.w3.org/2000/svg" xmlns:xlink="http://www.w3.org/1999/xlink" contentStyleType="text/css" height="544px" preserveAspectRatio="none" style="width:1079px;height:544px;background:#FFFFFF;" version="1.1" viewBox="0 0 1079 544" width="1079px" zoomAndPan="magnify"><defs/><g><!--class games--><g id="elem_games"><rect codeLine="3" fill="#F1F1F1" height="238.6792" id="games" rx="2.5" ry="2.5" style="stroke:#181818;stroke-width:0.5;" width="166" x="453" y="7"/><ellipse cx="509.25" cy="23" fill="#ADD1B2" rx="11" ry="11" style="stroke:#181818;stroke-width:1.0;"/><path d="M505.6094,29.5 L505.6094,17.3594 L513.2656,17.3594 L513.2656,19.4844 L507.9844,19.4844 L507.9844,22.1406 L513,22.1406 L513,24.2656 L507.9844,24.2656 L507.9844,27.375 L513.2656,27.375 L513.2656,29.5 L505.6094,29.5 Z " fill="#000000"/><text fill="#000000" font-family="sans-serif" font-size="14" lengthAdjust="spacing" textLength="45" x="529.75" y="28.432">games</text><line style="stroke:#181818;stroke-width:0.5;" x1="454" x2="618" y1="39" y2="39"/><ellipse cx="464" cy="54.034" fill="#000000" rx="3" ry="3" style="stroke:#000000;stroke-width:1.0;"/><text fill="#000000" font-family="sans-serif" font-size="14" lengthAdjust="spacing" textLength="140" x="473" y="57.9659">gameId &#171;generated&#187;</text><line style="stroke:#181818;stroke-width:1.0;" x1="454" x2="618" y1="66.0679" y2="66.0679"/><ellipse cx="464" cy="81.1019" fill="#000000" rx="3" ry="3" style="stroke:#000000;stroke-width:1.0;"/><text fill="#000000" font-family="sans-serif" font-size="14" lengthAdjust="spacing" textLength="38" x="473" y="85.0339">name</text><text fill="#000000" font-family="sans-serif" font-size="14" lengthAdjust="spacing" textLength="31" x="473" y="104.1018">desc</text><text fill="#000000" font-family="sans-serif" font-size="14" lengthAdjust="spacing" textLength="47" x="473" y="123.1697">genres</text><text fill="#000000" font-family="sans-serif" font-size="14" lengthAdjust="spacing" textLength="80" x="473" y="142.2376">releaseDate</text><text fill="#000000" font-family="sans-serif" font-size="14" lengthAdjust="spacing" textLength="67" x="473" y="161.3055">developer</text><text fill="#000000" font-family="sans-serif" font-size="14" lengthAdjust="spacing" textLength="65" x="473" y="180.3734">publisher</text><text fill="#000000" font-family="sans-serif" font-size="14" lengthAdjust="spacing" textLength="65" x="473" y="199.4414">platforms</text><text fill="#000000" font-family="sans-serif" font-size="14" lengthAdjust="spacing" textLength="62" x="473" y="218.5093">userTags</text><ellipse cx="464" cy="233.6452" fill="#000000" rx="3" ry="3" style="stroke:#000000;stroke-width:1.0;"/><text fill="#000000" font-family="sans-serif" font-size="14" lengthAdjust="spacing" textLength="41" x="473" y="237.5772">status</text></g><!--class game_genres--><g id="elem_game_genres"><rect codeLine="18" fill="#F1F1F1" height="86.1358" id="game_genres" rx="2.5" ry="2.5" style="stroke:#181818;stroke-width:0.5;" width="123" x="74.5" y="305.68"/><ellipse cx="89.5" cy="321.68" fill="#ADD1B2" rx="11" ry="11" style="stroke:#181818;stroke-width:1.0;"/><path d="M85.8594,328.18 L85.8594,316.0394 L93.5156,316.0394 L93.5156,318.1644 L88.2344,318.1644 L88.2344,320.8206 L93.25,320.8206 L93.25,322.9456 L88.2344,322.9456 L88.2344,326.055 L93.5156,326.055 L93.5156,328.18 L85.8594,328.18 Z " fill="#000000"/><text fill="#000000" font-family="sans-serif" font-size="14" lengthAdjust="spacing" textLength="91" x="103.5" y="327.112">game_genres</text><line style="stroke:#181818;stroke-width:0.5;" x1="75.5" x2="196.5" y1="337.68" y2="337.68"/><ellipse cx="85.5" cy="352.714" fill="#000000" rx="3" ry="3" style="stroke:#000000;stroke-width:1.0;"/><text fill="#000000" font-family="sans-serif" font-size="14" lengthAdjust="spacing" textLength="52" x="94.5" y="356.6459">gameId</text><ellipse cx="85.5" cy="371.7819" fill="#000000" rx="3" ry="3" style="stroke:#000000;stroke-width:1.0;"/><text fill="#000000" font-family="sans-serif" font-size="14" lengthAdjust="spacing" textLength="54" x="94.5" y="375.7139">genreId</text><line style="stroke:#181818;stroke-width:0.5;" x1="75.5" x2="196.5" y1="383.8158" y2="383.8158"/></g><!--class genres--><g id="elem_genres"><rect codeLine="23" fill="#F1F1F1" height="86.1358" id="genres" rx="2.5" ry="2.5" style="stroke:#181818;stroke-width:0.5;" width="168" x="7" y="451.81"/><ellipse cx="63.25" cy="467.81" fill="#ADD1B2" rx="11" ry="11" style="stroke:#181818;stroke-width:1.0;"/><path d="M59.6094,474.31 L59.6094,462.1694 L67.2656,462.1694 L67.2656,464.2944 L61.9844,464.2944 L61.9844,466.9506 L67,466.9506 L67,469.0756 L61.9844,469.0756 L61.9844,472.185 L67.2656,472.185 L67.2656,474.31 L59.6094,474.31 Z " fill="#000000"/><text fill="#000000" font-family="sans-serif" font-size="14" lengthAdjust="spacing" textLength="47" x="83.75" y="473.242">genres</text><line style="stroke:#181818;stroke-width:0.5;" x1="8" x2="174" y1="483.81" y2="483.81"/><ellipse cx="18" cy="498.844" fill="#000000" rx="3" ry="3" style="stroke:#000000;stroke-width:1.0;"/><text fill="#000000" font-family="sans-serif" font-size="14" lengthAdjust="spacing" textLength="142" x="27" y="502.7759">genreId &#171;generated&#187;</text><line style="stroke:#181818;stroke-width:1.0;" x1="8" x2="174" y1="510.8779" y2="510.8779"/><ellipse cx="18" cy="525.9119" fill="#000000" rx="3" ry="3" style="stroke:#000000;stroke-width:1.0;"/><text fill="#000000" font-family="sans-serif" font-size="14" lengthAdjust="spacing" textLength="38" x="27" y="529.8439">name</text></g><!--class game_developers--><g id="elem_game_developers"><rect codeLine="29" fill="#F1F1F1" height="86.1358" id="game_developers" rx="2.5" ry="2.5" style="stroke:#181818;stroke-width:0.5;" width="150" x="254" y="305.68"/><ellipse cx="269" cy="321.68" fill="#ADD1B2" rx="11" ry="11" style="stroke:#181818;stroke-width:1.0;"/><path d="M265.3594,328.18 L265.3594,316.0394 L273.0156,316.0394 L273.0156,318.1644 L267.7344,318.1644 L267.7344,320.8206 L272.75,320.8206 L272.75,322.9456 L267.7344,322.9456 L267.7344,326.055 L273.0156,326.055 L273.0156,328.18 L265.3594,328.18 Z " fill="#000000"/><text fill="#000000" font-family="sans-serif" font-size="14" lengthAdjust="spacing" textLength="118" x="283" y="327.112">game_developers</text><line style="stroke:#181818;stroke-width:0.5;" x1="255" x2="403" y1="337.68" y2="337.68"/><ellipse cx="265" cy="352.714" fill="#000000" rx="3" ry="3" style="stroke:#000000;stroke-width:1.0;"/><text fill="#000000" font-family="sans-serif" font-size="14" lengthAdjust="spacing" textLength="52" x="274" y="356.6459">gameId</text><ellipse cx="265" cy="371.7819" fill="#000000" rx="3" ry="3" style="stroke:#000000;stroke-width:1.0;"/><text fill="#000000" font-family="sans-serif" font-size="14" lengthAdjust="spacing" textLength="81" x="274" y="375.7139">developerId</text><line style="stroke:#181818;stroke-width:0.5;" x1="255" x2="403" y1="383.8158" y2="383.8158"/></g><!--class developers--><g id="elem_developers"><rect codeLine="34" fill="#F1F1F1" height="86.1358" id="developers" rx="2.5" ry="2.5" style="stroke:#181818;stroke-width:0.5;" width="195" x="209.5" y="451.81"/><ellipse cx="265.75" cy="467.81" fill="#ADD1B2" rx="11" ry="11" style="stroke:#181818;stroke-width:1.0;"/><path d="M262.1094,474.31 L262.1094,462.1694 L269.7656,462.1694 L269.7656,464.2944 L264.4844,464.2944 L264.4844,466.9506 L269.5,466.9506 L269.5,469.0756 L264.4844,469.0756 L264.4844,472.185 L269.7656,472.185 L269.7656,474.31 L262.1094,474.31 Z " fill="#000000"/><text fill="#000000" font-family="sans-serif" font-size="14" lengthAdjust="spacing" textLength="74" x="286.25" y="473.242">developers</text><line style="stroke:#181818;stroke-width:0.5;" x1="210.5" x2="403.5" y1="483.81" y2="483.81"/><ellipse cx="220.5" cy="498.844" fill="#000000" rx="3" ry="3" style="stroke:#000000;stroke-width:1.0;"/><text fill="#000000" font-family="sans-serif" font-size="14" lengthAdjust="spacing" textLength="169" x="229.5" y="502.7759">developerId &#171;generated&#187;</text><line style="stroke:#181818;stroke-width:1.0;" x1="210.5" x2="403.5" y1="510.8779" y2="510.8779"/><ellipse cx="220.5" cy="525.9119" fill="#000000" rx="3" ry="3" style="stroke:#000000;stroke-width:1.0;"/><text fill="#000000" font-family="sans-serif" font-size="14" lengthAdjust="spacing" textLength="38" x="229.5" y="529.8439">name</text></g><!--class game_publishers--><g id="elem_game_publishers"><rect codeLine="40" fill="#F1F1F1" height="86.1358" id="game_publishers" rx="2.5" ry="2.5" style="stroke:#181818;stroke-width:0.5;" width="148" x="462" y="305.68"/><ellipse cx="477" cy="321.68" fill="#ADD1B2" rx="11" ry="11" style="stroke:#181818;stroke-width:1.0;"/><path d="M473.3594,328.18 L473.3594,316.0394 L481.0156,316.0394 L481.0156,318.1644 L475.7344,318.1644 L475.7344,320.8206 L480.75,320.8206 L480.75,322.9456 L475.7344,322.9456 L475.7344,326.055 L481.0156,326.055 L481.0156,328.18 L473.3594,328.18 Z " fill="#000000"/><text fill="#000000" font-family="sans-serif" font-size="14" lengthAdjust="spacing" textLength="116" x="491" y="327.112">game_publishers</text><line style="stroke:#181818;stroke-width:0.5;" x1="463" x2="609" y1="337.68" y2="337.68"/><ellipse cx="473" cy="352.714" fill="#000000" rx="3" ry="3" style="stroke:#000000;stroke-width:1.0;"/><text fill="#000000" font-family="sans-serif" font-size="14" lengthAdjust="spacing" textLength="52" x="482" y="356.6459">gameId</text><ellipse cx="473" cy="371.7819" fill="#000000" rx="3" ry="3" style="stroke:#000000;stroke-width:1.0;"/><text fill="#000000" font-family="sans-serif" font-size="14" lengthAdjust="spacing" textLength="79" x="482" y="375.7139">publisherId</text><line style="stroke:#181818;stroke-width:0.5;" x1="463" x2="609" y1="383.8158" y2="383.8158"/></g><!--class publishers--><g id="elem_publishers"><rect codeLine="45" fill="#F1F1F1" height="86.1358" id="publishers" rx="2.5" ry="2.5" style="stroke:#181818;stroke-width:0.5;" width="193" x="439.5" y="451.81"/><ellipse cx="495.75" cy="467.81" fill="#ADD1B2" rx="11" ry="11" style="stroke:#181818;stroke-width:1.0;"/><path d="M492.1094,474.31 L492.1094,462.1694 L499.7656,462.1694 L499.7656,464.2944 L494.4844,464.2944 L494.4844,466.9506 L499.5,466.9506 L499.5,469.0756 L494.4844,469.0756 L494.4844,472.185 L499.7656,472.185 L499.7656,474.31 L492.1094,474.31 Z " fill="#000000"/><text fill="#000000" font-family="sans-serif" font-size="14" lengthAdjust="spacing" textLength="72" x="516.25" y="473.242">publishers</text><line style="stroke:#181818;stroke-width:0.5;" x1="440.5" x2="631.5" y1="483.81" y2="483.81"/><ellipse cx="450.5" cy="498.844" fill="#000000" rx="3" ry="3" style="stroke:#000000;stroke-width:1.0;"/><text fill="#000000" font-family="sans-serif" font-size="14" lengthAdjust="spacing" textLength="167" x="459.5" y="502.7759">publisherId &#171;generated&#187;</text><line style="stroke:#181818;stroke-width:1.0;" x1="440.5" x2="631.5" y1="510.8779" y2="510.8779"/><ellipse cx="450.5" cy="525.9119" fill="#000000" rx="3" ry="3" style="stroke:#000000;stroke-width:1.0;"/><text fill="#000000" font-family="sans-serif" font-size="14" lengthAdjust="spacing" textLength="38" x="459.5" y="529.8439">name</text></g><!--class game_platforms--><g id="elem_game_platforms"><rect codeLine="51" fill="#F1F1F1" height="86.1358" id="game_platforms" rx="2.5" ry="2.5" style="stroke:#181818;stroke-width:0.5;" width="141" x="667.5" y="305.68"/><ellipse cx="682.5" cy="321.68" fill="#ADD1B2" rx="11" ry="11" style="stroke:#181818;stroke-width:1.0;"/><path d="M678.8594,328.18 L678.8594,316.0394 L686.5156,316.0394 L686.5156,318.1644 L681.2344,318.1644 L681.2344,320.8206 L686.25,320.8206 L686.25,322.9456 L681.2344,322.9456 L681.2344,326.055 L686.5156,326.055 L686.5156,328.18 L678.8594,328.18 Z " fill="#000000"/><text fill="#000000" font-family="sans-serif" font-size="14" lengthAdjust="spacing" textLength="109" x="696.5" y="327.112">game_platforms</text><line style="stroke:#181818;stroke-width:0.5;" x1="668.5" x2="807.5" y1="337.68" y2="337.68"/><ellipse cx="678.5" cy="352.714" fill="#000000" rx="3" ry="3" style="stroke:#000000;stroke-width:1.0;"/><text fill="#000000" font-family="sans-serif" font-size="14" lengthAdjust="spacing" textLength="52" x="687.5" y="356.6459">gameId</text><ellipse cx="678.5" cy="371.7819" fill="#000000" rx="3" ry="3" style="stroke:#000000;stroke-width:1.0;"/><text fill="#000000" font-family="sans-serif" font-size="14" lengthAdjust="spacing" textLength="72" x="687.5" y="375.7139">platformId</text><line style="stroke:#181818;stroke-width:0.5;" x1="668.5" x2="807.5" y1="383.8158" y2="383.8158"/></g><!--class platforms--><g id="elem_platforms"><rect codeLine="56" fill="#F1F1F1" height="86.1358" id="platforms" rx="2.5" ry="2.5" style="stroke:#181818;stroke-width:0.5;" width="186" x="668" y="451.81"/><ellipse cx="724.25" cy="467.81" fill="#ADD1B2" rx="11" ry="11" style="stroke:#181818;stroke-width:1.0;"/><path d="M720.6094,474.31 L720.6094,462.1694 L728.2656,462.1694 L728.2656,464.2944 L722.9844,464.2944 L722.9844,466.9506 L728,466.9506 L728,469.0756 L722.9844,469.0756 L722.9844,472.185 L728.2656,472.185 L728.2656,474.31 L720.6094,474.31 Z " fill="#000000"/><text fill="#000000" font-family="sans-serif" font-size="14" lengthAdjust="spacing" textLength="65" x="744.75" y="473.242">platforms</text><line style="stroke:#181818;stroke-width:0.5;" x1="669" x2="853" y1="483.81" y2="483.81"/><ellipse cx="679" cy="498.844" fill="#000000" rx="3" ry="3" style="stroke:#000000;stroke-width:1.0;"/><text fill="#000000" font-family="sans-serif" font-size="14" lengthAdjust="spacing" textLength="160" x="688" y="502.7759">platformId &#171;generated&#187;</text><line style="stroke:#181818;stroke-width:1.0;" x1="669" x2="853" y1="510.8779" y2="510.8779"/><ellipse cx="679" cy="525.9119" fill="#000000" rx="3" ry="3" style="stroke:#000000;stroke-width:1.0;"/><text fill="#000000" font-family="sans-serif" font-size="14" lengthAdjust="spacing" textLength="38" x="688" y="529.8439">name</text></g><!--class game_user_tags--><g id="elem_game_user_tags"><rect codeLine="62" fill="#F1F1F1" height="86.1358" id="game_user_tags" rx="2.5" ry="2.5" style="stroke:#181818;stroke-width:0.5;" width="141" x="876.5" y="305.68"/><ellipse cx="891.5" cy="321.68" fill="#ADD1B2" rx="11" ry="11" style="stroke:#181818;stroke-width:1.0;"/><path d="M887.8594,328.18 L887.8594,316.0394 L895.5156,316.0394 L895.5156,318.1644 L890.2344,318.1644 L890.2344,320.8206 L895.25,320.8206 L895.25,322.9456 L890.2344,322.9456 L890.2344,326.055 L895.5156,326.055 L895.5156,328.18 L887.8594,328.18 Z " fill="#000000"/><text fill="#000000" font-family="sans-serif" font-size="14" lengthAdjust="spacing" textLength="109" x="905.5" y="327.112">game_user_tags</text><line style="stroke:#181818;stroke-width:0.5;" x1="877.5" x2="1016.5" y1="337.68" y2="337.68"/><ellipse cx="887.5" cy="352.714" fill="#000000" rx="3" ry="3" style="stroke:#000000;stroke-width:1.0;"/><text fill="#000000" font-family="sans-serif" font-size="14" lengthAdjust="spacing" textLength="52" x="896.5" y="356.6459">gameId</text><ellipse cx="887.5" cy="371.7819" fill="#000000" rx="3" ry="3" style="stroke:#000000;stroke-width:1.0;"/><text fill="#000000" font-family="sans-serif" font-size="14" lengthAdjust="spacing" textLength="69" x="896.5" y="375.7139">userTagId</text><line style="stroke:#181818;stroke-width:0.5;" x1="877.5" x2="1016.5" y1="383.8158" y2="383.8158"/></g><!--class user_tags--><g id="elem_user_tags"><rect codeLine="67" fill="#F1F1F1" height="86.1358" id="user_tags" rx="2.5" ry="2.5" style="stroke:#181818;stroke-width:0.5;" width="183" x="889.5" y="451.81"/><ellipse cx="944.25" cy="467.81" fill="#ADD1B2" rx="11" ry="11" style="stroke:#181818;stroke-width:1.0;"/><path d="M940.6094,474.31 L940.6094,462.1694 L948.2656,462.1694 L948.2656,464.2944 L942.9844,464.2944 L942.9844,466.9506 L948,466.9506 L948,469.0756 L942.9844,469.0756 L942.9844,472.185 L948.2656,472.185 L948.2656,474.31 L940.6094,474.31 Z " fill="#000000"/><text fill="#000000" font-family="sans-serif" font-size="14" lengthAdjust="spacing" textLength="65" x="964.75" y="473.242">user_tags</text><line style="stroke:#181818;stroke-width:0.5;" x1="890.5" x2="1071.5" y1="483.81" y2="483.81"/><ellipse cx="900.5" cy="498.844" fill="#000000" rx="3" ry="3" style="stroke:#000000;stroke-width:1.0;"/><text fill="#000000" font-family="sans-serif" font-size="14" lengthAdjust="spacing" textLength="157" x="909.5" y="502.7759">userTagId &#171;generated&#187;</text><line style="stroke:#181818;stroke-width:1.0;" x1="890.5" x2="1071.5" y1="510.8779" y2="510.8779"/><ellipse cx="900.5" cy="525.9119" fill="#000000" rx="3" ry="3" style="stroke:#000000;stroke-width:1.0;"/><text fill="#000000" font-family="sans-serif" font-size="14" lengthAdjust="spacing" textLength="38" x="909.5" y="529.8439">name</text></g><!--link games to game_genres--><g id="link_games_game_genres"><path codeLine="73" d="M452.63,126.95 C335.41,126.95 136,126.95 136,126.95 C136,126.95 136,232.6 136,297.19 " fill="none" id="games-to-game_genres" style="stroke:#181818;stroke-width:1.0;"/><line style="stroke:#181818;stroke-width:1.0;" x1="136" x2="142" y1="297.19" y2="305.19"/><line style="stroke:#181818;stroke-width:1.0;" x1="136" x2="130" y1="297.19" y2="305.19"/><line style="stroke:#181818;stroke-width:1.0;" x1="136" x2="136" y1="297.19" y2="305.19"/><line style="stroke:#181818;stroke-width:1.0;" x1="140" x2="132" y1="295.19" y2="295.19"/></g><!--link game_genres to genres--><g id="link_game_genres_genres"><path codeLine="74" d="M124.75,400.2 C124.75,418.87 124.75,424.66 124.75,443.35 " fill="none" id="game_genres-genres" style="stroke:#181818;stroke-width:1.0;"/><line style="stroke:#181818;stroke-width:1.0;" x1="124.75" x2="118.75" y1="400.2" y2="392.2"/><line style="stroke:#181818;stroke-width:1.0;" x1="124.75" x2="130.75" y1="400.2" y2="392.2"/><line style="stroke:#181818;stroke-width:1.0;" x1="124.75" x2="124.75" y1="400.2" y2="392.2"/><line style="stroke:#181818;stroke-width:1.0;" x1="120.75" x2="128.75" y1="402.2" y2="402.2"/><line style="stroke:#181818;stroke-width:1.0;" x1="124.75" x2="130.75" y1="443.35" y2="451.35"/><line style="stroke:#181818;stroke-width:1.0;" x1="124.75" x2="118.75" y1="443.35" y2="451.35"/><line style="stroke:#181818;stroke-width:1.0;" x1="124.75" x2="124.75" y1="443.35" y2="451.35"/><line style="stroke:#181818;stroke-width:1.0;" x1="128.75" x2="120.75" y1="441.35" y2="441.35"/></g><!--link games to game_developers--><g id="link_games_game_developers"><path codeLine="77" d="M457.5,246.12 C457.5,298.81 457.5,348.95 457.5,348.95 C457.5,348.95 440.46,348.95 412.49,348.95 " fill="none" id="games-to-game_developers" style="stroke:#181818;stroke-width:1.0;"/><line style="stroke:#181818;stroke-width:1.0;" x1="412.49" x2="404.49" y1="348.95" y2="354.95"/><line style="stroke:#181818;stroke-width:1.0;" x1="412.49" x2="404.49" y1="348.95" y2="342.95"/><line style="stroke:#181818;stroke-width:1.0;" x1="412.49" x2="404.49" y1="348.95" y2="348.95"/><line style="stroke:#181818;stroke-width:1.0;" x1="414.49" x2="414.49" y1="352.95" y2="344.95"/></g><!--link game_developers to developers--><g id="link_game_developers_developers"><path codeLine="78" d="M329,400.2 C329,418.87 329,424.66 329,443.35 " fill="none" id="game_developers-developers" style="stroke:#181818;stroke-width:1.0;"/><line style="stroke:#181818;stroke-width:1.0;" x1="329" x2="323" y1="400.2" y2="392.2"/><line style="stroke:#181818;stroke-width:1.0;" x1="329" x2="335" y1="400.2" y2="392.2"/><line style="stroke:#181818;stroke-width:1.0;" x1="329" x2="329" y1="400.2" y2="392.2"/><line style="stroke:#181818;stroke-width:1.0;" x1="325" x2="333" y1="402.2" y2="402.2"/><line style="stroke:#181818;stroke-width:1.0;" x1="329" x2="335" y1="443.35" y2="451.35"/><line style="stroke:#181818;stroke-width:1.0;" x1="329" x2="323" y1="443.35" y2="451.35"/><line style="stroke:#181818;stroke-width:1.0;" x1="329" x2="329" y1="443.35" y2="451.35"/><line style="stroke:#181818;stroke-width:1.0;" x1="333" x2="325" y1="441.35" y2="441.35"/></g><!--link games to game_publishers--><g id="link_games_game_publishers"><path codeLine="81" d="M536,246.01 C536,267.19 536,279.95 536,297.21 " fill="none" id="games-to-game_publishers" style="stroke:#181818;stroke-width:1.0;"/><line style="stroke:#181818;stroke-width:1.0;" x1="536" x2="542" y1="297.21" y2="305.21"/><line style="stroke:#181818;stroke-width:1.0;" x1="536" x2="530" y1="297.21" y2="305.21"/><line style="stroke:#181818;stroke-width:1.0;" x1="536" x2="536" y1="297.21" y2="305.21"/><line style="stroke:#181818;stroke-width:1.0;" x1="540" x2="532" y1="295.21" y2="295.21"/></g><!--link game_publishers to publishers--><g id="link_game_publishers_publishers"><path codeLine="82" d="M536,400.2 C536,418.87 536,424.66 536,443.35 " fill="none" id="game_publishers-publishers" style="stroke:#181818;stroke-width:1.0;"/><line style="stroke:#181818;stroke-width:1.0;" x1="536" x2="530" y1="400.2" y2="392.2"/><line style="stroke:#181818;stroke-width:1.0;" x1="536" x2="542" y1="400.2" y2="392.2"/><line style="stroke:#181818;stroke-width:1.0;" x1="536" x2="536" y1="400.2" y2="392.2"/><line style="stroke:#181818;stroke-width:1.0;" x1="532" x2="540" y1="402.2" y2="402.2"/><line style="stroke:#181818;stroke-width:1.0;" x1="536" x2="542" y1="443.35" y2="451.35"/><line style="stroke:#181818;stroke-width:1.0;" x1="536" x2="530" y1="443.35" y2="451.35"/><line style="stroke:#181818;stroke-width:1.0;" x1="536" x2="536" y1="443.35" y2="451.35"/><line style="stroke:#181818;stroke-width:1.0;" x1="540" x2="532" y1="441.35" y2="441.35"/></g><!--link games to game_platforms--><g id="link_games_game_platforms"><path codeLine="84" d="M614.5,246.12 C614.5,298.81 614.5,348.95 614.5,348.95 C614.5,348.95 631.64,348.95 659.23,348.95 " fill="none" id="games-to-game_platforms" style="stroke:#181818;stroke-width:1.0;"/><line style="stroke:#181818;stroke-width:1.0;" x1="659.23" x2="667.23" y1="348.95" y2="342.95"/><line style="stroke:#181818;stroke-width:1.0;" x1="659.23" x2="667.23" y1="348.95" y2="354.95"/><line style="stroke:#181818;stroke-width:1.0;" x1="659.23" x2="667.23" y1="348.95" y2="348.95"/><line style="stroke:#181818;stroke-width:1.0;" x1="657.23" x2="657.23" y1="344.95" y2="352.95"/></g><!--link game_platforms to platforms--><g id="link_game_platforms_platforms"><path codeLine="85" d="M738.25,400.2 C738.25,418.87 738.25,424.66 738.25,443.35 " fill="none" id="game_platforms-platforms" style="stroke:#181818;stroke-width:1.0;"/><line style="stroke:#181818;stroke-width:1.0;" x1="738.25" x2="732.25" y1="400.2" y2="392.2"/><line style="stroke:#181818;stroke-width:1.0;" x1="738.25" x2="744.25" y1="400.2" y2="392.2"/><line style="stroke:#181818;stroke-width:1.0;" x1="738.25" x2="738.25" y1="400.2" y2="392.2"/><line style="stroke:#181818;stroke-width:1.0;" x1="734.25" x2="742.25" y1="402.2" y2="402.2"/><line style="stroke:#181818;stroke-width:1.0;" x1="738.25" x2="744.25" y1="443.35" y2="451.35"/><line style="stroke:#181818;stroke-width:1.0;" x1="738.25" x2="732.25" y1="443.35" y2="451.35"/><line style="stroke:#181818;stroke-width:1.0;" x1="738.25" x2="738.25" y1="443.35" y2="451.35"/><line style="stroke:#181818;stroke-width:1.0;" x1="742.25" x2="734.25" y1="441.35" y2="441.35"/></g><!--link games to game_user_tags--><g id="link_games_game_user_tags"><path codeLine="88" d="M619.17,126.95 C739.27,126.95 947,126.95 947,126.95 C947,126.95 947,232.6 947,297.19 " fill="none" id="games-to-game_user_tags" style="stroke:#181818;stroke-width:1.0;"/><line style="stroke:#181818;stroke-width:1.0;" x1="947" x2="953" y1="297.19" y2="305.19"/><line style="stroke:#181818;stroke-width:1.0;" x1="947" x2="941" y1="297.19" y2="305.19"/><line style="stroke:#181818;stroke-width:1.0;" x1="947" x2="947" y1="297.19" y2="305.19"/><line style="stroke:#181818;stroke-width:1.0;" x1="951" x2="943" y1="295.19" y2="295.19"/></g><!--link game_user_tags to user_tags--><g id="link_game_user_tags_user_tags"><path codeLine="89" d="M953.5,400.2 C953.5,418.87 953.5,424.66 953.5,443.35 " fill="none" id="game_user_tags-user_tags" style="stroke:#181818;stroke-width:1.0;"/><line style="stroke:#181818;stroke-width:1.0;" x1="953.5" x2="947.5" y1="400.2" y2="392.2"/><line style="stroke:#181818;stroke-width:1.0;" x1="953.5" x2="959.5" y1="400.2" y2="392.2"/><line style="stroke:#181818;stroke-width:1.0;" x1="953.5" x2="953.5" y1="400.2" y2="392.2"/><line style="stroke:#181818;stroke-width:1.0;" x1="949.5" x2="957.5" y1="402.2" y2="402.2"/><line style="stroke:#181818;stroke-width:1.0;" x1="953.5" x2="959.5" y1="443.35" y2="451.35"/><line style="stroke:#181818;stroke-width:1.0;" x1="953.5" x2="947.5" y1="443.35" y2="451.35"/><line style="stroke:#181818;stroke-width:1.0;" x1="953.5" x2="953.5" y1="443.35" y2="451.35"/><line style="stroke:#181818;stroke-width:1.0;" x1="957.5" x2="949.5" y1="441.35" y2="441.35"/></g><!--SRC=[bLFBRiCW4Bpp5PmZ-G-Yd7hflVU8rXl7AiOMh2j5YV-z1F3oSjJQ9rOpencMiVdkrIIq6BZi5U1j0Zvgl8wCWS8URxmJ0nX-Pzn-1pUzj_nux4215WZjwUIWfWaCPHdks8BvSWTBrM3SKOC4OU3D2WFd1-GuWNRJD7_AtbpNIGgyZ7hmojc0_X2T7mu61Sw6BIoBUVPEHTXrU69sMgAaO7l2dtTRSa-wmWjVmZFl3LL2t9k15lSY0-5PXWrLGjoTONskxGG1pGEiakXFjBtsptwSqHPaUmEXFfbzBI7MVzpzZz4qZtjQFfOMSNbus2Er9BQ0bLqAqeHHo-C3ih86GPumQZNzN_b8Mi9hBQsE5SiFseZ_0W00]--></g></svg>